<svg width="568" height="131" viewBox="0 0 568 131" fill="none" xmlns="http://www.w3.org/2000/svg">
<path d="M200.163 118.228H200.663V117.728V102.633V102.133H200.163H198.284H197.784V102.633V117.728V118.228H198.284H200.163Z" fill="#909FBE" stroke="#909FBE"/>
<path d="M216.011 118.5C220.773 118.5 224.002 114.898 224.002 110.191C224.002 105.485 220.773 101.884 216.011 101.884C211.226 101.884 208.02 105.486 208.02 110.191C208.02 114.897 211.226 118.5 216.011 118.5ZM216.011 115.825C214.452 115.825 213.204 115.226 212.341 114.244C211.472 113.255 210.966 111.845 210.966 110.191C210.966 108.526 211.473 107.117 212.341 106.132C213.203 105.152 214.45 104.559 216.011 104.559C217.56 104.559 218.808 105.152 219.673 106.132C220.545 107.118 221.056 108.527 221.056 110.191C221.056 111.844 220.545 113.254 219.673 114.243C218.806 115.227 217.558 115.825 216.011 115.825Z" fill="#909FBE" stroke="#909FBE"/>
<path d="M236.862 118.228H237.362V117.728V104.807H241.66H242.16V104.307V102.633V102.133H241.66H230.208H229.708V102.633V104.307V104.807H230.208H234.483V117.728V118.228H234.983H236.862Z" fill="#909FBE" stroke="#909FBE"/>
<path d="M260.986 118.228H261.727L261.45 117.541L255.362 102.446L255.236 102.133H254.898H252.567H252.229L252.103 102.446L246.038 117.541L245.762 118.228H246.502H248.652H248.991L249.116 117.913L250.326 114.878H257.162L258.372 117.913L258.497 118.228H258.836H260.986ZM253.743 105.943L256.202 112.204H251.266L253.743 105.943Z" fill="#909FBE" stroke="#909FBE"/>
<path d="M289.549 118.228H290.049V117.728V116.053V115.553H289.549H282.037V111.348H289.39H289.89V110.848V109.173V108.673H289.39H282.037V104.807H289.549H290.049V104.307V102.633V102.133H289.549H279.658H279.158V102.633V117.728V118.228H279.658H289.549Z" fill="#909FBE" stroke="#909FBE"/>
<path d="M310.672 118.228H311.676L311.071 117.427L305.436 109.965L310.731 102.934L311.334 102.133H310.332H308.046H307.793L307.644 102.336L303.587 107.834L299.508 102.335L299.358 102.133H299.106H296.821H295.818L296.421 102.934L301.739 109.987L296.083 117.425L295.473 118.228H296.481H298.767H299.017L299.167 118.028L303.588 112.134L308.008 118.028L308.158 118.228H308.408H310.672Z" fill="#909FBE" stroke="#909FBE"/>
<path d="M320.049 118.228H320.549V117.728V112.23H324.235C325.851 112.23 327.167 111.665 328.079 110.73C328.987 109.8 329.466 108.533 329.466 107.181C329.466 105.833 329.001 104.567 328.097 103.634C327.189 102.698 325.872 102.133 324.235 102.133H318.17H317.67V102.633V117.728V118.228H318.17H320.049ZM324.009 109.556H320.549V104.807H324.009C324.792 104.807 325.415 105.063 325.839 105.469C326.261 105.873 326.519 106.457 326.519 107.181C326.519 107.906 326.261 108.49 325.839 108.894C325.415 109.3 324.792 109.556 324.009 109.556Z" fill="#909FBE" stroke="#909FBE"/>
<path d="M346.775 118.228H347.275V117.728V116.053V115.553H346.775H339.264V111.348H346.617H347.117V110.848V109.173V108.673H346.617H339.264V104.807H346.775H347.275V104.307V102.633V102.133H346.775H336.885H336.385V102.633V117.728V118.228H336.885H346.775Z" fill="#909FBE" stroke="#909FBE"/>
<path d="M366.156 118.228H367.087L366.573 117.452L362.924 111.938C363.764 111.73 364.548 111.311 365.169 110.677C365.989 109.842 366.498 108.66 366.498 107.181C366.498 105.666 365.959 104.393 365.011 103.499C364.067 102.609 362.755 102.133 361.268 102.133H355.202H354.702V102.633V117.728V118.228H355.202H357.081H357.581V117.728V112.23H359.817L363.517 117.998L363.665 118.228H363.938H366.156ZM361.041 109.578H357.581V104.807H361.041C361.824 104.807 362.447 105.063 362.871 105.469C363.293 105.873 363.551 106.457 363.551 107.181C363.551 107.906 363.293 108.497 362.869 108.907C362.444 109.318 361.821 109.578 361.041 109.578Z" fill="#909FBE" stroke="#909FBE"/>
<path d="M376.282 118.228H376.782V117.728V102.633V102.133H376.282H374.403H373.903V102.633V117.728V118.228H374.403H376.282Z" fill="#909FBE" stroke="#909FBE"/>
<path d="M395.14 118.228H395.64V117.728V116.053V115.553H395.14H387.628V111.348H394.982H395.482V110.848V109.173V108.673H394.982H387.628V104.807H395.14H395.64V104.307V102.633V102.133H395.14H385.25H384.75V102.633V117.728V118.228H385.25H395.14Z" fill="#909FBE" stroke="#909FBE"/>
<path d="M416.06 118.228H416.56V117.728V102.633V102.133H416.06H414.181H413.681V102.633V112.903L405.893 102.336L405.743 102.133H405.49H403.567H403.067V102.633V117.728V118.228H403.567H405.445H405.945V117.728V107.219L413.845 118.023L413.995 118.228H414.249H416.06Z" fill="#909FBE" stroke="#909FBE"/>
<path d="M438.325 115.309L438.664 114.849L438.163 114.574L436.556 113.692L436.154 113.471L435.899 113.853C435.13 115.007 433.722 115.825 432.174 115.825C429.165 115.825 426.857 113.512 426.857 110.191C426.857 106.85 429.164 104.559 432.174 104.559C433.718 104.559 435.129 105.396 435.902 106.534L436.159 106.913L436.559 106.69L438.143 105.808L438.629 105.537L438.308 105.082C437.03 103.275 435.033 101.884 432.174 101.884C427.561 101.884 423.911 105.267 423.911 110.191C423.911 115.116 427.561 118.5 432.174 118.5C435.035 118.5 436.984 117.128 438.325 115.309Z" fill="#909FBE" stroke="#909FBE"/>
<path d="M455.638 118.228H456.138V117.728V116.053V115.553H455.638H448.126V111.348H455.48H455.98V110.848V109.173V108.673H455.48H448.126V104.807H455.638H456.138V104.307V102.633V102.133H455.638H445.748H445.248V102.633V117.728V118.228H445.748H455.638Z" fill="#909FBE" stroke="#909FBE"/>
<path d="M480.944 118.228H481.444V117.728V104.807H485.742H486.242V104.307V102.633V102.133H485.742H474.29H473.79V102.633V104.307V104.807H474.29H478.566V117.728V118.228H479.066H480.944Z" fill="#909FBE" stroke="#909FBE"/>
<path d="M503.561 118.228H504.061V117.728V116.053V115.553H503.561H496.049V111.348H503.402H503.902V110.848V109.173V108.673H503.402H496.049V104.807H503.561H504.061V104.307V102.633V102.133H503.561H493.67H493.17V102.633V117.728V118.228H493.67H503.561Z" fill="#909FBE" stroke="#909FBE"/>
<path d="M524.91 118.228H525.651L525.374 117.541L519.286 102.446L519.16 102.133H518.822H516.491H516.153L516.027 102.446L509.962 117.541L509.686 118.228H510.426H512.576H512.915L513.04 117.913L514.25 114.878H521.086L522.296 117.913L522.421 118.228H522.76H524.91ZM517.667 105.943L520.125 112.204H515.19L517.667 105.943Z" fill="#909FBE" stroke="#909FBE"/>
<path d="M547.095 118.228H547.595V117.728V102.633V102.133H547.095H544.401H544.067L543.939 102.441L539.694 112.685L535.471 102.442L535.344 102.133H535.009H532.315H531.815V102.633V117.728V118.228H532.315H534.194H534.694V117.728V107.831L538.847 117.918L538.974 118.228H539.309H540.079H540.413L540.541 117.919L544.715 107.821V117.728V118.228H545.215H547.095Z" fill="#909FBE" stroke="#909FBE"/>
<path d="M564.662 106.228L565.052 106.656L565.419 106.208L566.551 104.828L566.83 104.487L566.527 104.167C565.153 102.72 563.228 101.906 560.8 101.906C557.672 101.906 555.117 103.727 555.117 106.593C555.117 108.11 555.762 109.131 556.718 109.835C557.639 110.512 558.84 110.889 559.953 111.199C560.143 111.252 560.33 111.303 560.513 111.353C561.445 111.607 562.281 111.834 562.932 112.168C563.311 112.363 563.59 112.577 563.774 112.82C563.95 113.054 564.057 113.34 564.057 113.722C564.057 114.177 563.888 114.688 563.452 115.088C563.017 115.488 562.262 115.825 561.003 115.825C559.049 115.825 557.546 114.869 556.623 113.841L556.223 113.396L555.856 113.868L554.747 115.294L554.492 115.622L554.768 115.933C556.112 117.447 558.173 118.5 560.936 118.5C563.064 118.5 564.591 117.913 565.591 116.968C566.59 116.024 567.003 114.774 567.003 113.564C567.003 111.995 566.369 110.918 565.417 110.165C564.495 109.436 563.293 109.023 562.172 108.701C561.868 108.614 561.573 108.534 561.288 108.456C560.48 108.237 559.755 108.04 559.168 107.772C558.782 107.595 558.505 107.407 558.326 107.201C558.158 107.007 558.064 106.781 558.064 106.48C558.064 105.933 558.305 105.476 558.74 105.142C559.183 104.802 559.844 104.581 560.664 104.581C562.203 104.581 563.642 105.107 564.662 106.228Z" fill="#909FBE" stroke="#909FBE"/>
<path d="M249.579 83.4999H263L237.634 49.8622L261.597 17.9999H248.08L230.55 41.7907L212.93 17.9999H199.414L223.47 49.9523L198 83.4999H211.527L230.554 58.0982L249.579 83.4999Z" fill="white"/>
<path d="M287.5 51.7495C287.5 55.2014 284.702 57.9999 281.25 57.9999C277.798 57.9999 275 55.2014 275 51.7495C275 48.2977 277.798 45.4999 281.25 45.4999C284.702 45.4999 287.5 48.2977 287.5 51.7495Z" fill="white"/>
<path d="M319.691 83.4999H330.716V28.1803H350.5V17.9999H300V28.1803H319.691V83.4999Z" fill="white"/>
<path d="M410 83.4999H366V17.9999H410V28.1803H377.009V44.9602H409.347V55.1406H377.009V73.3195H410V83.4999Z" fill="white"/>
<path d="M487.5 83.4999H475.135L456.15 34.6307C455.815 33.7693 454.596 33.7707 454.263 34.6322L435.366 83.4999H423L447.059 23.4575C448.38 20.1607 451.575 17.9999 455.128 17.9999C458.67 17.9999 461.857 20.1478 463.185 23.4288L487.5 83.4999Z" fill="white"/>
<path d="M556.428 83.4999H567.5V17.9999H553.6L535.207 62.1794L516.903 17.9999H503V83.4999H514.072V38.9311L532.507 83.4999H537.898L556.428 38.8974V83.4999Z" fill="white"/>
<path d="M46.6818 95.7649C43.0343 99.413 43.0343 105.328 46.6818 108.976C50.3292 112.625 56.2432 112.625 59.8906 108.976L73.9318 94.932L87.9428 108.946C91.5903 112.594 97.5036 112.594 101.151 108.946C104.798 105.298 104.798 99.3823 101.151 95.7342L87.1407 81.7199L142.422 26.4242C149.717 19.1274 149.717 7.29667 142.422 -0.00012207L73.9318 68.5077L5.47102 0.0292966C-1.82367 7.32609 -1.82367 19.1568 5.47102 26.4536L60.7229 81.7199L46.6818 95.7649Z" fill="white"/>
<path d="M104.44 87.8399C100.789 84.1899 100.789 78.2713 104.44 74.6206L142.292 36.7683C149.593 44.0697 149.593 55.9069 142.292 63.2076L117.66 87.8399C114.009 91.4906 108.09 91.4906 104.44 87.8399Z" fill="#909FBE"/>
<path d="M43.7155 87.8419C47.3662 84.1912 47.3662 78.2726 43.7155 74.6226L5.86386 36.7703C-1.43737 44.0716 -1.43737 55.9089 5.86386 63.2096L30.4962 87.8419C34.1462 91.4926 40.0648 91.4926 43.7155 87.8419Z" fill="#909FBE"/>
<path d="M85.6887 119.013C85.6887 125.498 80.431 130.755 73.9456 130.755C67.4608 130.755 62.2031 125.498 62.2031 119.013C62.2031 112.528 67.4608 107.27 73.9456 107.27C80.431 107.27 85.6887 112.528 85.6887 119.013Z" fill="#909FBE"/>
</svg>
