<svg width="1000" height="400" viewBox="0 0 1000 400" fill="none" xmlns="http://www.w3.org/2000/svg">
<path d="M389.275 281.063V259.976H386.65V281.063H389.275Z" fill="#8493AD"/>
<path d="M411.414 281.443C417.642 281.443 421.879 276.764 421.879 270.535C421.879 264.307 417.642 259.628 411.414 259.628C405.154 259.628 400.949 264.307 400.949 270.535C400.949 276.764 405.154 281.443 411.414 281.443ZM411.414 279.103C406.671 279.103 403.668 275.436 403.668 270.535C403.668 265.603 406.671 261.968 411.414 261.968C416.125 261.968 419.16 265.603 419.16 270.535C419.16 275.436 416.125 279.103 411.414 279.103Z" fill="#8493AD"/>
<path d="M440.542 281.063V262.315H447.244V259.976H431.247V262.315H437.917V281.063H440.542Z" fill="#8493AD"/>
<path d="M474.242 281.063L465.737 259.976H462.481L454.008 281.063H457.011L458.877 276.384H469.373L471.238 281.063H474.242ZM468.583 274.045H459.635L464.125 262.695L468.583 274.045Z" fill="#8493AD"/>
<path d="M514.142 281.063V278.724H502.95V271.452H513.92V269.113H502.95V262.315H514.142V259.976H500.325V281.063H514.142Z" fill="#8493AD"/>
<path d="M543.65 281.063L535.461 270.219L543.175 259.976H539.982L533.754 268.417L527.494 259.976H524.301L532.047 270.251L523.827 281.063H527.02L533.754 272.085L540.488 281.063H543.65Z" fill="#8493AD"/>
<path d="M556.75 281.063V272.685H562.598C566.772 272.685 569.206 269.777 569.206 266.33C569.206 262.884 566.835 259.976 562.598 259.976H554.125V281.063H556.75ZM562.282 270.346H556.75V262.315H562.282C564.78 262.315 566.487 263.959 566.487 266.33C566.487 268.702 564.78 270.346 562.282 270.346Z" fill="#8493AD"/>
<path d="M594.085 281.063V278.724H582.893V271.452H593.864V269.113H582.893V262.315H594.085V259.976H580.269V281.063H594.085Z" fill="#8493AD"/>
<path d="M621.159 281.063L615.468 272.464C618.345 272.211 620.938 270.124 620.938 266.33C620.938 262.442 618.187 259.976 614.33 259.976H605.857V281.063H608.481V272.685H612.686L618.061 281.063H621.159ZM614.014 270.377H608.481V262.315H614.014C616.511 262.315 618.219 263.959 618.219 266.33C618.219 268.702 616.511 270.377 614.014 270.377Z" fill="#8493AD"/>
<path d="M635.304 281.063V259.976H632.68V281.063H635.304Z" fill="#8493AD"/>
<path d="M661.648 281.063V278.724H650.456V271.452H661.427V269.113H650.456V262.315H661.648V259.976H647.832V281.063H661.648Z" fill="#8493AD"/>
<path d="M690.872 281.063V259.976H688.247V276.448L676.107 259.976H673.42V281.063H676.044V264.244L688.342 281.063H690.872Z" fill="#8493AD"/>
<path d="M713.382 281.443C717.113 281.443 719.642 279.672 721.413 277.27L719.168 276.037C717.967 277.839 715.785 279.103 713.382 279.103C708.766 279.103 705.257 275.531 705.257 270.535C705.257 265.508 708.766 261.968 713.382 261.968C715.785 261.968 717.967 263.264 719.168 265.034L721.381 263.801C719.705 261.43 717.113 259.628 713.382 259.628C707.312 259.628 702.538 264.054 702.538 270.535C702.538 277.017 707.312 281.443 713.382 281.443Z" fill="#8493AD"/>
<path d="M746.161 281.063V278.724H734.969V271.452H745.94V269.113H734.969V262.315H746.161V259.976H732.345V281.063H746.161Z" fill="#8493AD"/>
<path d="M781.512 281.063V262.315H788.215V259.976H772.217V262.315H778.888V281.063H781.512Z" fill="#8493AD"/>
<path d="M813.106 281.063V278.724H801.914V271.452H812.885V269.113H801.914V262.315H813.106V259.976H799.29V281.063H813.106Z" fill="#8493AD"/>
<path d="M842.931 281.063L834.426 259.976H831.17L822.697 281.063H825.7L827.565 276.384H838.062L839.927 281.063H842.931ZM837.271 274.045H828.324L832.814 262.695L837.271 274.045Z" fill="#8493AD"/>
<path d="M873.921 281.063V259.976H870.158L863.582 275.847L857.038 259.976H853.275V281.063H855.9V263.706L863.045 281.063H864.12L871.296 263.706V281.063H873.921Z" fill="#8493AD"/>
<path d="M893.257 281.443C898.947 281.443 901.034 278.313 901.034 275.246C901.034 267.374 888.546 270.093 888.546 265.35C888.546 263.359 890.348 261.999 892.877 261.999C895.185 261.999 897.398 262.79 898.979 264.528L900.56 262.6C898.789 260.734 896.292 259.66 893.067 259.66C888.925 259.66 885.827 262.031 885.827 265.508C885.827 273.033 898.315 270.03 898.315 275.467C898.315 277.08 897.114 279.103 893.351 279.103C890.38 279.103 888.103 277.649 886.712 276.1L885.163 278.092C886.902 280.052 889.589 281.443 893.257 281.443Z" fill="#8493AD"/>
<path fill-rule="evenodd" clip-rule="evenodd" d="M389.854 281.637H386.08V259.399H389.854V281.637ZM389.279 259.974V281.061H386.655V259.974H389.279ZM422.459 270.533C422.459 277.047 417.996 282.016 411.419 282.016C404.809 282.016 400.379 277.046 400.379 270.533C400.379 264.021 404.809 259.051 411.419 259.051C417.996 259.051 422.459 264.02 422.459 270.533ZM406.199 276.275C407.43 277.676 409.206 278.526 411.419 278.526C413.614 278.526 415.392 277.676 416.627 276.275C417.867 274.867 418.589 272.867 418.589 270.533C418.589 268.183 417.867 266.184 416.627 264.781C415.393 263.384 413.616 262.541 411.419 262.541C409.205 262.541 407.428 263.384 406.199 264.78C404.963 266.183 404.248 268.182 404.248 270.533C404.248 272.868 404.963 274.868 406.199 276.275ZM441.122 281.637H437.347V262.888H430.676V259.399H447.824V262.888H441.122V281.637ZM440.546 281.061H437.922V262.313H431.251V259.974H447.249V262.313H440.546V281.061ZM475.099 281.637H470.853L468.988 276.957H459.271L457.406 281.637H453.162L462.097 259.399H466.13L475.099 281.637ZM458.881 276.382H469.378L471.243 281.061H474.247L465.742 259.974H462.486L454.013 281.061H457.016L458.881 276.382ZM468.587 274.043L464.13 262.693L459.64 274.043H468.587ZM467.744 273.468L464.128 264.261L460.486 273.468H467.744ZM514.721 281.637H499.755V259.399H514.721V262.888H503.529V268.536H514.5V272.025H503.529V278.147H514.721V281.637ZM514.146 278.722V281.061H500.33V259.974H514.146V262.313H502.954V269.111H513.925V271.45H502.954V278.722H514.146ZM544.809 281.637H540.205L533.759 273.041L527.312 281.637H522.672L531.33 270.247L523.152 259.399H527.788L533.758 267.448L539.697 259.399H544.333L536.186 270.217L544.809 281.637ZM535.466 270.217L543.18 259.974H539.987L533.759 268.415L527.499 259.974H524.306L532.052 270.249L523.831 281.061H527.025L533.759 272.083L540.493 281.061H543.655L535.466 270.217ZM557.329 281.637H553.555V259.399H562.603C564.86 259.399 566.666 260.177 567.909 261.458C569.147 262.736 569.786 264.474 569.786 266.328C569.786 268.187 569.128 269.925 567.884 271.2C566.635 272.479 564.83 273.258 562.603 273.258H557.329V281.637ZM556.754 281.061H554.13V259.974H562.603C566.84 259.974 569.211 262.882 569.211 266.328C569.211 269.775 566.777 272.683 562.603 272.683H556.754V281.061ZM557.329 269.769H562.287C563.408 269.769 564.31 269.401 564.928 268.81C565.545 268.22 565.917 267.371 565.917 266.328C565.917 265.286 565.545 264.437 564.928 263.847C564.31 263.255 563.408 262.888 562.287 262.888H557.329V269.769ZM594.665 281.637H579.699V259.399H594.665V262.888H583.473V268.536H594.444V272.025H583.473V278.147H594.665V281.637ZM594.09 278.722V281.061H580.274V259.974H594.09V262.313H582.898V269.111H593.869V271.45H582.898V278.722H594.09ZM622.234 281.637H617.751L612.376 273.258H609.061V281.637H605.286V259.399H614.335C616.386 259.399 618.187 260.056 619.479 261.274C620.776 262.496 621.518 264.242 621.518 266.328C621.518 268.365 620.818 269.983 619.697 271.126C618.805 272.035 617.666 272.624 616.448 272.893L622.234 281.637ZM615.473 272.462C615.686 272.443 615.897 272.415 616.105 272.376C618.719 271.891 620.942 269.842 620.942 266.328C620.942 262.44 618.192 259.974 614.335 259.974H605.862V281.061H608.486V272.683H612.691L618.065 281.061H621.164L615.473 272.462ZM609.061 269.8H614.019C615.136 269.8 616.038 269.427 616.658 268.828C617.276 268.23 617.648 267.371 617.648 266.328C617.648 265.286 617.276 264.437 616.66 263.847C616.042 263.255 615.14 262.888 614.019 262.888H609.061V269.8ZM635.884 281.637H632.109V259.399H635.884V281.637ZM635.309 259.974V281.061H632.684V259.974H635.309ZM662.228 281.637H647.261V259.399H662.228V262.888H651.036V268.536H662.007V272.025H651.036V278.147H662.228V281.637ZM661.653 278.722V281.061H647.837V259.974H661.653V262.313H650.461V269.111H661.431V271.45H650.461V278.722H661.653ZM691.451 281.637H688.055L676.624 266.003V281.637H672.849V259.399H676.402L687.677 274.696V259.399H691.451V281.637ZM688.252 276.446L676.112 259.974H673.424V281.061H676.049V264.242L688.347 281.061H690.876V259.974H688.252V276.446ZM722.27 277.08L721.881 277.609C720.025 280.126 717.337 282.016 713.387 282.016C707.009 282.016 701.968 277.342 701.968 270.533C701.968 263.725 707.009 259.051 713.387 259.051C717.334 259.051 720.091 260.97 721.856 263.467L722.225 263.99L718.993 265.791L718.697 265.355C717.596 263.732 715.588 262.541 713.387 262.541C709.11 262.541 705.837 265.802 705.837 270.533C705.837 275.234 709.112 278.526 713.387 278.526C715.592 278.526 717.596 277.362 718.694 275.716L718.987 275.276L722.27 277.08ZM721.062 277.728C721.184 277.578 721.302 277.424 721.417 277.268L719.173 276.035C717.971 277.837 715.79 279.101 713.387 279.101C708.771 279.101 705.262 275.529 705.262 270.533C705.262 265.506 708.771 261.965 713.387 261.965C715.79 261.965 717.971 263.262 719.173 265.032L721.386 263.799C721.274 263.641 721.159 263.486 721.039 263.334C719.36 261.196 716.87 259.626 713.387 259.626C707.317 259.626 702.543 264.052 702.543 270.533C702.543 277.015 707.317 281.441 713.387 281.441C716.875 281.441 719.313 279.893 721.062 277.728ZM746.741 281.637H731.775V259.399H746.741V262.888H735.549V268.536H746.52V272.025H735.549V278.147H746.741V281.637ZM746.166 278.722V281.061H732.35V259.974H746.166V262.313H734.974V269.111H745.944V271.45H734.974V278.722H746.166ZM782.092 281.637H778.318V262.888H771.647V259.399H788.795V262.888H782.092V281.637ZM781.517 281.061H778.893V262.313H772.222V259.974H788.219V262.313H781.517V281.061ZM813.686 281.637H798.72V259.399H813.686V262.888H802.494V268.536H813.465V272.025H802.494V278.147H813.686V281.637ZM813.111 278.722V281.061H799.295V259.974H813.111V262.313H801.919V269.111H812.89V271.45H801.919V278.722H813.111ZM843.788 281.637H839.542L837.677 276.957H827.96L826.095 281.637H821.85L830.786 259.399H834.819L843.788 281.637ZM827.57 276.382H838.067L839.932 281.061H842.935L834.431 259.974H831.174L822.701 281.061H825.705L827.57 276.382ZM837.276 274.043L832.818 262.693L828.329 274.043H837.276ZM836.432 273.468L832.816 264.261L829.175 273.468H836.432ZM874.501 281.637H870.726V266.6L864.509 281.637H862.664L856.479 266.612V281.637H852.705V259.399H857.427L863.588 274.339L869.779 259.399H874.501V281.637ZM863.587 275.845L857.042 259.974H853.28V281.061H855.904V263.704L863.05 281.061H864.124L871.301 263.704V281.061H873.925V259.974H870.163L863.587 275.845ZM899.006 265.406L898.558 264.913C897.106 263.316 895.06 262.572 892.882 262.572C891.715 262.572 890.764 262.886 890.118 263.382C889.483 263.87 889.126 264.544 889.126 265.348C889.126 265.8 889.269 266.143 889.522 266.436C889.788 266.743 890.193 267.015 890.741 267.265C891.57 267.644 892.597 267.923 893.73 268.231C894.126 268.338 894.535 268.45 894.954 268.57C896.519 269.02 898.177 269.59 899.444 270.593C900.747 271.623 901.614 273.092 901.614 275.244C901.614 276.907 901.046 278.618 899.679 279.91C898.312 281.203 896.211 282.016 893.261 282.016C889.436 282.016 886.59 280.56 884.737 278.471L884.42 278.114L886.685 275.202L887.145 275.714C888.453 277.17 890.583 278.526 893.356 278.526C895.135 278.526 896.223 278.049 896.86 277.464C897.498 276.879 897.745 276.131 897.745 275.465C897.745 274.906 897.588 274.481 897.324 274.131C897.053 273.771 896.646 273.462 896.106 273.185C895.184 272.712 894 272.39 892.699 272.036C892.444 271.966 892.185 271.896 891.921 271.823C890.366 271.389 888.708 270.867 887.442 269.936C886.136 268.974 885.257 267.584 885.257 265.506C885.257 261.595 888.742 259.082 893.072 259.082C896.434 259.082 899.09 260.208 900.982 262.202L901.331 262.57L899.006 265.406ZM898.578 264.114C897.036 262.662 894.999 261.997 892.882 261.997C890.353 261.997 888.551 263.357 888.551 265.348C888.551 267.421 890.935 268.068 893.621 268.797C897.08 269.737 901.039 270.812 901.039 275.244C901.039 278.311 898.952 281.441 893.261 281.441C889.594 281.441 886.907 280.05 885.168 278.09L886.717 276.098C886.844 276.239 886.978 276.379 887.119 276.518C888.528 277.9 890.655 279.101 893.356 279.101C897.119 279.101 898.32 277.078 898.32 275.465C898.32 272.967 895.683 272.25 892.833 271.476C889.48 270.565 885.832 269.574 885.832 265.506C885.832 262.029 888.93 259.658 893.072 259.658C896.297 259.658 898.794 260.732 900.565 262.598L898.984 264.526C898.853 264.382 898.718 264.245 898.578 264.114ZM421.883 270.533C421.883 276.762 417.647 281.441 411.419 281.441C405.159 281.441 400.954 276.762 400.954 270.533C400.954 264.305 405.159 259.626 411.419 259.626C417.647 259.626 421.883 264.305 421.883 270.533ZM403.673 270.533C403.673 275.434 406.676 279.101 411.419 279.101C416.129 279.101 419.164 275.434 419.164 270.533C419.164 265.601 416.129 261.965 411.419 261.965C406.676 261.965 403.673 265.601 403.673 270.533ZM562.287 270.344C564.785 270.344 566.492 268.7 566.492 266.328C566.492 263.957 564.785 262.313 562.287 262.313H556.754V270.344H562.287ZM614.019 270.375C616.516 270.375 618.223 268.7 618.223 266.328C618.223 263.957 616.516 262.313 614.019 262.313H608.486V270.375H614.019Z" fill="#8493AD"/>
<path d="M458.253 233.277H477.032L441.539 186.272L475.069 141.748H456.156L431.627 174.993L406.973 141.748H388.061L421.72 186.398L386.082 233.277H405.01L431.632 197.781L458.253 233.277Z" fill="#485776"/>
<path d="M511.094 188.973C511.094 193.723 507.233 197.574 502.471 197.574C497.709 197.574 493.848 193.723 493.848 188.973C493.848 184.223 497.709 180.373 502.471 180.373C507.233 180.373 511.094 184.223 511.094 188.973Z" fill="#485776"/>
<path d="M556.306 233.277H571.706V155.974H599.342V141.748H528.801V155.974H556.306V233.277Z" fill="#485776"/>
<path d="M682.513 233.277H620.967V141.748H682.513V155.974H636.366V179.422H681.6V193.648H636.366V219.051H682.513V233.277Z" fill="#485776"/>
<path d="M790.591 233.14H773.348L746.873 164.953C746.407 163.751 744.707 163.753 744.242 164.955L717.89 233.14H700.646L734.196 149.363C736.038 144.763 740.494 141.748 745.448 141.748C750.387 141.748 754.832 144.745 756.684 149.323L790.591 233.14Z" fill="#485776"/>
<path d="M886.601 233.277H902V141.748H882.668L857.089 203.484L831.632 141.748H812.297V233.277H827.696V170.997L853.334 233.277H860.831L886.601 170.95V233.277Z" fill="#485776"/>
<path d="M169.708 246.48C164.129 252.06 164.129 261.108 169.708 266.688C175.287 272.269 184.333 272.269 189.912 266.688L211.389 245.206L232.82 266.642C238.399 272.222 247.444 272.222 253.023 266.642C258.602 261.061 258.602 252.013 253.023 246.433L231.593 224.997L316.15 140.418C327.308 129.257 327.308 111.161 316.15 100L211.389 204.788L106.673 100.045C95.5152 111.206 95.5152 129.302 106.673 140.463L191.185 224.997L169.708 246.48Z" fill="#485776"/>
<path d="M258.054 234.358C252.47 228.775 252.47 219.722 258.054 214.138L315.951 156.24V156.24C327.118 167.408 327.118 185.514 315.951 196.681L278.274 234.358C272.69 239.942 263.637 239.942 258.054 234.358V234.358Z" fill="#C3D0E4"/>
<path d="M165.171 234.361C170.755 228.777 170.755 219.724 165.171 214.141L107.274 156.243V156.243C96.1062 167.411 96.1062 185.517 107.274 196.684L144.951 234.361C150.534 239.945 159.587 239.945 165.171 234.361V234.361Z" fill="#C3D0E4"/>
<path d="M229.372 282.039C229.372 291.959 221.33 300 211.41 300C201.491 300 193.449 291.959 193.449 282.039C193.449 272.12 201.491 264.078 211.41 264.078C221.33 264.078 229.372 272.12 229.372 282.039Z" fill="#C3D0E4"/>
</svg>
